<svg xmlns="http://www.w3.org/2000/svg" width="150.438" height="34" viewBox="0 0 150.438 34">
  <defs>
    <style>
      .cls-1 {
        fill: #fff;
        fill-rule: evenodd;
      }
    </style>
  </defs>
  <path id="VULFOCUS" class="cls-1" d="M47.974,24.105q-1.2-.37-2.392-0.744l-1.438-.448-1.222-.377-1.208-.373-1.609-.5L38.627,21.2l-1.375-.427-1.664-.517c-0.118-.037-0.234-0.078-0.351-0.12l-0.2-.069L34.852,20H34.171l-0.5.172c-0.222.077-.445,0.154-0.669,0.225-0.379.12-.759,0.237-1.139,0.354l-1.235.382-3.32,1.03-1.951.608-1.776.554L21.4,24l-0.069.015a1.5,1.5,0,0,0-1.312,1.77c0,0.025,0,.05.005,0.07v1.854q0,2.784,0,5.568V33.9c0.006,2.443.012,4.969,0.046,7.456a4.857,4.857,0,0,0,.367,1.6,11.042,11.042,0,0,0,1.513,2.809c0.247,0.332.521,0.674,0.837,1.047a6.6,6.6,0,0,0,.739.767l0.3,0.256a16.09,16.09,0,0,0,1.437,1.149c0.941,0.645,1.911,1.24,2.9,1.844,0.525,0.319,1.063.606,1.583,0.884l0.292,0.156c0.591,0.317,1.185.628,1.779,0.939l0.58,0.3,0.583,0.3,0.58,0.3,0.018,0.015L33.907,54H34.8l0.51-.266c0.181-.095.363-0.19,0.545-0.281,0.205-.1.411-0.2,0.618-0.3,0.386-.188.785-0.383,1.179-0.592l0.16-.085c0.912-.484,1.855-0.984,2.772-1.517,0.879-.511,1.793-1.074,2.963-1.824A12.6,12.6,0,0,0,46.079,47a13.047,13.047,0,0,0,1.847-2.6,10.532,10.532,0,0,0,.944-2.362,1.743,1.743,0,0,0,.056-0.417l0.01-1.139c0.01-1.109.02-2.217,0.025-3.326,0-.812,0-1.624,0-2.437q0-1.173,0-2.345c0.008-2.313.021-4.628,0.039-6.879A1.391,1.391,0,0,0,47.974,24.105Zm-1.381,8.266q0,1.178,0,2.356,0,0.086,0,.172H44.719v2.349h1.872c0,1.072-.014,2.145-0.024,3.217l-0.01,1.058a8.308,8.308,0,0,1-.724,1.779,10.7,10.7,0,0,1-1.515,2.128,10.239,10.239,0,0,1-2.056,1.729c-1.14.731-2.026,1.277-2.875,1.77-0.877.51-1.8,1-2.691,1.472l-0.16.085c-0.3.161-.609,0.312-0.928,0.468l0.012-2.736-2.37-.01-0.012,2.684-0.311-.163c-0.587-.308-1.174-0.615-1.758-0.928l-0.3-.158c-0.514-.274-1-0.533-1.468-0.818-0.965-.586-1.9-1.163-2.8-1.774a14.107,14.107,0,0,1-1.225-.986L25.074,45.8a4.585,4.585,0,0,1-.473-0.5c-0.284-.334-0.527-0.638-0.743-0.93a8.7,8.7,0,0,1-1.192-2.214,3.1,3.1,0,0,1-.225-0.828c-0.019-1.353-.029-2.719-0.035-4.078h2V34.9H22.4q0-.5,0-1l0-.62q-0.007-2.781,0-5.561V26.158l1.9-.591,1.777-.554,1.949-.607,3.318-1.03L32.561,23l0.757-.234v2.529h2.37V22.749l0.857,0.266,1.372,0.426L39.392,23.9l1.614,0.5,1.214,0.375,1.216,0.375L44.871,25.6l1.756,0.547C46.612,28.193,46.6,30.283,46.593,32.371Zm-4.434,4.306H39.8V33.441l1.584-1.5a0.582,0.582,0,0,0-.241-0.983,0.593,0.593,0,0,0-.572.138l-1.68,1.59H30.111l-1.68-1.59a0.592,0.592,0,0,0-.572-0.138,0.581,0.581,0,0,0-.241.982l1.584,1.5v3.236H26.847a0.584,0.584,0,1,0,0,1.168H29.2v0.681a5.2,5.2,0,0,0,.722,2.649l-2.306,2.183a0.58,0.58,0,0,0-.019.826,0.593,0.593,0,0,0,.833.019l2.2-2.085a5.3,5.3,0,0,0,3.28,1.63V36.774a0.589,0.589,0,0,1,1.178,0v6.974a5.307,5.307,0,0,0,3.28-1.63l2.2,2.085a0.593,0.593,0,0,0,.815-0.036,0.581,0.581,0,0,0,0-.809l-2.307-2.183a5.2,5.2,0,0,0,.721-2.649V37.844h2.356A0.584,0.584,0,1,0,42.159,36.677Zm-4.712-5.449a2.945,2.945,0,0,0-5.889,0v0.389h5.889V31.228ZM65.106,45.181L70.463,30.22h-3.2L63.6,41.293,59.809,30.22H56.533l5.347,14.961h3.225Zm6.878-6.98a18.164,18.164,0,0,0,.3,3.8,4.121,4.121,0,0,0,.847,1.658,4.647,4.647,0,0,0,1.75,1.286,8.287,8.287,0,0,0,3.25.495,7.659,7.659,0,0,0,2.878-.454,4.561,4.561,0,0,0,1.76-1.219,4.212,4.212,0,0,0,.9-1.878,20.189,20.189,0,0,0,.245-3.806V30.22H80.893V38.5a16.837,16.837,0,0,1-.133,2.541,2.077,2.077,0,0,1-.786,1.291,3.044,3.044,0,0,1-1.939.526,3.216,3.216,0,0,1-2-.556,2.422,2.422,0,0,1-.924-1.475,16.8,16.8,0,0,1-.112-2.5v-8.1H71.984V38.2Zm25.727,6.98V42.66H90.2V30.343H87.179V45.181H97.711Zm5.194,0V38.823h6.246V36.292h-6.246V32.751h7.235V30.22H99.884V45.181h3.021ZM113.988,43.4a7.041,7.041,0,0,0,5.306,2.036,6.969,6.969,0,0,0,5.266-2.046,7.836,7.836,0,0,0,1.97-5.669,7.863,7.863,0,0,0-1.985-5.7,7.023,7.023,0,0,0-5.291-2.051,8.215,8.215,0,0,0-3.225.592A5.82,5.82,0,0,0,114.1,31.9a7.031,7.031,0,0,0-1.393,2.051,9.512,9.512,0,0,0-.684,3.837A7.727,7.727,0,0,0,113.988,43.4Zm2.286-9.572a4.177,4.177,0,0,1,6-.015,5.624,5.624,0,0,1,1.128,3.837,5.718,5.718,0,0,1-1.158,3.9,4.035,4.035,0,0,1-5.945-.01,5.607,5.607,0,0,1-1.173-3.852A5.653,5.653,0,0,1,116.274,33.828Zm20.941,8.261a3.027,3.027,0,0,1-2.072.765,3.312,3.312,0,0,1-2.653-1.2,6.271,6.271,0,0,1-1.021-4.041,5.851,5.851,0,0,1,1.036-3.868,3.4,3.4,0,0,1,2.7-1.194,3.092,3.092,0,0,1,3.154,2.51l2.99-.714a5.912,5.912,0,0,0-1.531-2.755,6.223,6.223,0,0,0-4.46-1.623,6.615,6.615,0,0,0-5.072,2.066,8.177,8.177,0,0,0-1.928,5.8,7.79,7.79,0,0,0,1.918,5.567,7.048,7.048,0,0,0,8.873.847,6.565,6.565,0,0,0,2.24-3.638l-2.928-.929A4.449,4.449,0,0,1,137.215,42.089ZM143.96,38.2a18.19,18.19,0,0,0,.3,3.8,4.115,4.115,0,0,0,.847,1.658,4.651,4.651,0,0,0,1.75,1.286,8.289,8.289,0,0,0,3.251.495,7.654,7.654,0,0,0,2.877-.454,4.563,4.563,0,0,0,1.761-1.219,4.207,4.207,0,0,0,.9-1.878,20.213,20.213,0,0,0,.245-3.806V30.22h-3.021V38.5a16.745,16.745,0,0,1-.133,2.541,2.075,2.075,0,0,1-.785,1.291,3.045,3.045,0,0,1-1.939.526,3.215,3.215,0,0,1-2-.556,2.419,2.419,0,0,1-.924-1.475,16.8,16.8,0,0,1-.112-2.5v-8.1H143.96V38.2Zm16.165,5.934a6.481,6.481,0,0,0,4.358,1.311,8.475,8.475,0,0,0,3.255-.546,4.284,4.284,0,0,0,2.021-1.669,4.711,4.711,0,0,0,.117-4.791,4.2,4.2,0,0,0-1.653-1.521,14.649,14.649,0,0,0-3.261-1.077,7.945,7.945,0,0,1-2.776-1,1.15,1.15,0,0,1-.449-0.908,1.09,1.09,0,0,1,.48-0.929,3.453,3.453,0,0,1,2.061-.541,3.045,3.045,0,0,1,1.914.505,2.57,2.57,0,0,1,.832,1.658l3.02-.133a4.356,4.356,0,0,0-1.5-3.3,6.315,6.315,0,0,0-4.24-1.235,7.485,7.485,0,0,0-2.944.52A4.059,4.059,0,0,0,159.5,32a3.846,3.846,0,0,0-.648,2.138,3.894,3.894,0,0,0,1.378,3.011,8.2,8.2,0,0,0,3.408,1.48q1.889,0.47,2.419.653a2.493,2.493,0,0,1,1.087.648,1.365,1.365,0,0,1,.311.9,1.835,1.835,0,0,1-.74,1.444,3.363,3.363,0,0,1-2.2.617,3.256,3.256,0,0,1-2.189-.694,3.586,3.586,0,0,1-1.077-2.174l-2.939.286A5.706,5.706,0,0,0,160.125,44.135Z" transform="translate(-20.031 -20)"/>
</svg>
