<?xml version="1.0" standalone="no"?><!DOCTYPE svg PUBLIC "-//W3C//DTD SVG 1.1//EN" "http://www.w3.org/Graphics/SVG/1.1/DTD/svg11.dtd"><svg t="1606819322300" class="icon" viewBox="0 0 1024 1024" version="1.1" xmlns="http://www.w3.org/2000/svg" p-id="2914" xmlns:xlink="http://www.w3.org/1999/xlink" width="128" height="128"><defs><style type="text/css"></style></defs><path d="M544 448H288a32 32 0 1 1 0-64h256a32 32 0 1 1 0 64m-288 96a32 32 0 0 1 32-32h128a32 32 0 1 1 0 64H288a32 32 0 0 1-32-32m32 96h128a32 32 0 1 1 0 64H288a32 32 0 1 1 0-64M831.936 192H192.064A64 64 0 0 0 128 255.776v512.448A64 64 0 0 0 192.064 832h639.872A64 64 0 0 0 896 768.224V255.776A64 64 0 0 0 831.936 192" p-id="2915"></path></svg>