<?xml version="1.0" standalone="no"?><!DOCTYPE svg PUBLIC "-//W3C//DTD SVG 1.1//EN" "http://www.w3.org/Graphics/SVG/1.1/DTD/svg11.dtd"><svg class="icon" width="200px" height="191.22px" viewBox="0 0 1071 1024" version="1.1" xmlns="http://www.w3.org/2000/svg"><path fill="#d81e06" d="M1041.441824 418.173769C1017.545784 379.457987 976.978907 357.655147 934.856203 355.990951 932.672662 355.651924 930.455865 355.426732 928.182457 355.426732L681.491077 355.156994C698.221007 307.082112 707.361417 255.423948 707.361417 201.600472 707.361417 166.693164 703.416492 132.726219 696.177769 100.007732L695.526642 100.09187C682.3613 42.777911 631.382524 0 570.359886 0 499.341382 0 441.78117 57.86828 441.78117 129.246872 441.78117 133.195164 442.028573 137.076641 442.364598 140.942034 438.548914 278.142407 331.614976 389.360269 196.661604 399.069528L196.661604 399.904721 49.99039 400.248696C48.21671 400.029691 46.431955 399.882449 44.609042 399.882449 20.192356 399.882449 0.39757 419.774863 0.39757 444.313419L0 977.678089C0 1002.211696 19.782477 1022.104111 44.199165 1022.104111 46.59566 1022.104111 48.930613 1021.861596 51.223717 1021.494111L214.393457 1021.562164C216.553627 1021.888817 218.732259 1022.104111 220.969974 1022.104111 223.210149 1022.104111 225.381396 1021.888817 227.525566 1021.56835L840.966989 1021.82695 840.966989 1022.092974C864.997185 1022.137518 889.32402 1015.639107 911.109115 1001.722954 931.788904 988.498463 947.345814 970.345723 957.569383 949.811138 960.374515 945.715604 962.586401 941.106583 963.928028 936.029854L1059.429687 512.279478C1060.754092 507.254717 1061.113516 502.206443 1060.720858 497.29428 1062.705021 470.461729 1056.644245 442.797699 1041.441824 418.173769L1041.441824 418.173769ZM265.44116 938.490887 177.048986 938.469853 177.38132 494.580834C177.38132 494.580834 231.384331 494.238097 265.862117 483.495673L265.44116 938.490887 265.44116 938.490887Z" /></svg>