<?xml version="1.0" standalone="no"?><!DOCTYPE svg PUBLIC "-//W3C//DTD SVG 1.1//EN" "http://www.w3.org/Graphics/SVG/1.1/DTD/svg11.dtd"><svg t="1633942754319" class="icon" viewBox="0 0 1024 1024" version="1.1" xmlns="http://www.w3.org/2000/svg" p-id="2340" xmlns:xlink="http://www.w3.org/1999/xlink" width="200" height="200"><defs><style type="text/css"></style></defs><path d="M939.6736 588.9536a25.6 25.6 0 0 1-37.1712-35.2256c2.816-2.9696 10.4448-11.5712 22.3744-25.3952a25.6 25.6 0 0 0-0.1024-33.6384C799.232 352.0512 662.016 281.6 512 281.6c-150.1696 0-287.5392 70.6048-413.184 213.504a25.6 25.6 0 0 0 0 33.792C224.512 671.7952 361.8816 742.4 512 742.4a459.1616 459.1616 0 0 0 172.544-33.3312c39.0144-15.6672 77.1072-36.864 114.2784-63.5904a25.6 25.6 0 1 1 29.9008 41.5232 589.824 589.824 0 0 1-125.0816 69.5808A510.3104 510.3104 0 0 1 512 793.6c-165.9392 0-316.8256-77.568-451.584-230.912a76.8 76.8 0 0 1 0-101.376C195.1744 307.968 346.0608 230.4 512 230.4c165.7856 0 316.5184 77.4144 451.2256 230.4512a76.8 76.8 0 0 1 0.3584 101.0688c-12.544 14.3872-20.3264 23.2448-23.9104 27.0336zM512 640a128 128 0 1 1 0-256 128 128 0 0 1 0 256z m0-51.2a76.8 76.8 0 1 0 0-153.6 76.8 76.8 0 0 0 0 153.6z" fill="#d81e06" p-id="2341"></path></svg>