<?xml version="1.0" standalone="no"?><!DOCTYPE svg PUBLIC "-//W3C//DTD SVG 1.1//EN" "http://www.w3.org/Graphics/SVG/1.1/DTD/svg11.dtd"><svg t="1630461820907" class="icon" viewBox="0 0 1024 1024" version="1.1" xmlns="http://www.w3.org/2000/svg" p-id="2221" xmlns:xlink="http://www.w3.org/1999/xlink" width="220" height="220"><defs><style type="text/css"></style></defs><path d="M407.28 199.936l90.544-172.88a16.032 16.032 0 0 1 28.352 0L688 336l305.824 50.176a16 16 0 0 1 8.896 26.928L752 672l68.528 315.616a16 16 0 0 1-23.936 17.072L512 832 225.568 1005.792a16 16 0 0 1-24.064-16.384L256 672 19.856 412.928a16.016 16.016 0 0 1 9.248-26.576L336 336l42.64-81.392" fill="#FFFFFF" p-id="2222"></path><path d="M512 528l237.68 152 3.28-3.552 67.568 311.168a16 16 0 0 1-6.336 16.416L808 1000 605.088 676.448 512 528v304L225.568 1005.792l-8.704 2.32a16.048 16.048 0 0 1-8.592-2.768c-5.184-3.536 7.728-5.344 7.728-5.344L512 528z m0 0l176-181.68-4.544-8.528 310.064 48.56a15.168 15.168 0 0 1 6.832 2.88l4.464 5.792L512 528z m0-434.912V528l-125.696-138.768-20.288-22.4 0.88-0.352 4.816-5.552L481.904 150.56 512 93.088zM53.184 421.92c2.176-1.808 4.816-3.056 7.696-3.52l7.68-1.264 9.536-1.568L512 528l-257.152 150.72L256 672 51.584 444.88a15.984 15.984 0 0 1-3.216-16l4.816-6.96z" fill="#FFD140" p-id="2223"></path><path d="M512 93.088l16.256-31.024a11.808 11.808 0 0 1 5.376-5.472l50.064 93.968L672 336l11.456 1.792 4.544 8.528L512 528V93.088z m494.48 309.216l-0.272-5.216-1.392-2.064 11.184-3.024-9.52 10.304z" fill="#FFE183" p-id="2224"></path><path d="M1004.816 395.024l1.392 2.064 0.272 5.216-142 153.552L752 672l0.96 4.448-3.28 3.552L512 528l492.816-132.976zM512 528l93.088 148.448L808 1000 518.016 835.648 512 832V528zM216 1000l27.312-254.128 11.536-67.152L512 528 216 1000z m170.304-610.768L512 528 78.096 415.568l282.032-46.272 5.888-2.464 20.288 22.4z" fill="#FFE183" p-id="2225"></path></svg>