<?xml version="1.0" standalone="no"?><!DOCTYPE svg PUBLIC "-//W3C//DTD SVG 1.1//EN" "http://www.w3.org/Graphics/SVG/1.1/DTD/svg11.dtd"><svg t="1630577109296" class="icon" viewBox="0 0 1024 1024" version="1.1" xmlns="http://www.w3.org/2000/svg" p-id="11496" xmlns:xlink="http://www.w3.org/1999/xlink" width="220" height="220"><defs><style type="text/css"></style></defs><path d="M558.1 251.7c40 0 77.7 15.6 106 43.9 28.3 28.3 44 65.9 44 106l0.2 171.4c0 11.1 2.6 22.2 7.6 32.2L793.4 760c0.5 1 2 4-0.3 7.8s-5.7 3.8-6.8 3.8H671l-99.3 0.1-119.5 0.1H388l-149.6 0.1h-0.1c-1.1 0-4.5 0-6.8-3.8s-0.8-6.8-0.3-7.8l77.4-154.6c5-10 7.6-21.2 7.6-32.3L316 402c0-40.1 15.5-77.8 43.8-106.1 28.3-28.4 66-44 106-44l92.1-0.1h0.2m0-60.1h-0.2l-92.1 0.1C349.8 191.9 255.9 286 256 402l0.2 171.4c0 1.9-0.4 3.7-1.3 5.4l-77.4 154.6c-22.6 45.2 10.2 98.4 60.8 98.4h0.1l149.7-0.1c14 55.4 64.2 96.4 123.9 96.4 59.8 0 110-41.1 124-96.6h-21.7H636l150.4-0.1c50.5 0 83.4-53.3 60.8-98.5l-77.5-154.8c-0.8-1.7-1.3-3.5-1.3-5.4l-0.2-171.4C768 285.6 674 191.7 558.1 191.7zM452.2 831.8l119.5-0.1c-11.3 21.5-33.8 36.2-59.8 36.2-25.9 0-48.4-14.7-59.7-36.1H426h26.2z" p-id="11497"></path><path d="M512.9 98.4c-55.5 0-100.5 44.9-100.7 100.4 17.1-4.5 35-6.9 53.5-7h6.1c4.3-18.1 20.6-31.6 40.1-31.6 19.4 0 35.7 13.5 40.1 31.6h6c19.2 0 37.8 2.6 55.5 7.4v-0.1c0-55.6-45-100.7-100.6-100.7z" p-id="11498"></path></svg>