<?xml version="1.0" standalone="no"?><!DOCTYPE svg PUBLIC "-//W3C//DTD SVG 1.1//EN" "http://www.w3.org/Graphics/SVG/1.1/DTD/svg11.dtd"><svg t="1630461863580" class="icon" viewBox="0 0 1024 1024" version="1.1" xmlns="http://www.w3.org/2000/svg" p-id="2758" xmlns:xlink="http://www.w3.org/1999/xlink" width="220" height="220"><defs><style type="text/css"></style></defs><path d="M240.1536 934.540288c11.133952 7.635968 24.193024 11.515904 37.266432 11.515904 10.778624 0 21.543936-2.609152 31.296512-7.840768l203.25888-109.463552 203.298816 109.463552c9.781248 5.231616 20.559872 7.840768 31.296512 7.840768 13.060096 0 26.120192-3.879936 37.29408-11.515904 20.190208-13.947904 30.518272-37.854208 26.474496-61.70624l-39.616512-236.632064 170.909696-170.662912c16.925696-16.831488 22.718464-41.529344 15.012864-63.960064-7.732224-22.38976-27.6224-38.742016-51.56864-42.320896l-233.148416-34.684928L570.566656 114.184192c-10.628096-22.10304-33.46944-36.242432-58.591232-36.242432-25.039872 0-47.894528 14.139392-58.563584 36.242432l-101.336064 210.388992-233.160704 34.684928c-23.960576 3.57888-43.850752 19.931136-51.569664 42.320896-7.704576 22.43072-1.870848 47.128576 15.040512 63.960064l170.841088 170.662912-39.6288 236.632064C209.60768 896.68608 219.921408 920.592384 240.1536 934.540288zM118.477824 421.960704l232.410112-34.521088 40.887296-6.0928 17.949696-37.21216 102.264832-212.041728 102.250496 212.041728 17.964032 37.21216 40.887296 6.0928 232.410112 34.521088L736.012288 591.026176l-28.469248 28.40064 6.626304 39.629824 39.602176 236.193792L548.95616 785.091584l-37.008384-19.9168-37.006336 19.9168L270.12608 895.292416l39.602176-236.234752 6.626304-39.629824-28.470272-28.40064L118.477824 421.960704z" p-id="2759"></path></svg>