<?xml version="1.0" standalone="no"?><!DOCTYPE svg PUBLIC "-//W3C//DTD SVG 1.1//EN" "http://www.w3.org/Graphics/SVG/1.1/DTD/svg11.dtd"><svg t="1588857432439" class="icon" viewBox="0 0 1024 1024" version="1.1" xmlns="http://www.w3.org/2000/svg" p-id="11324" xmlns:xlink="http://www.w3.org/1999/xlink" width="200" height="200"><defs><style type="text/css"></style></defs><path d="M512 0C229.216 0 0 229.216 0 512c0 282.768 229.216 512 512 512 282.752 0 512-229.232 512-512C1024 229.216 794.752 0 512 0zM512 992C246.896 992 32 777.088 32 512 32 246.896 246.896 32 512 32c265.056 0 480 214.896 480 480C992 777.088 777.056 992 512 992z" p-id="11325"></path><path d="M371.008 320c-8.848 0-16 7.168-16 16l0 352c0 8.848 7.152 16 16 16s16-7.152 16-16L387.008 336C387.008 327.168 379.84 320 371.008 320z" p-id="11326"></path><path d="M652.992 320c-8.848 0-16 7.168-16 16l0 352c0 8.848 7.152 16 16 16s16-7.152 16-16L668.992 336C668.992 327.168 661.84 320 652.992 320z" p-id="11327"></path></svg>